<svg id="texto" xmlns="http://www.w3.org/2000/svg" xmlns:xlink="http://www.w3.org/1999/xlink" viewBox="0 0 79.38 37.3"><defs><style>.cls-1{fill:url(#Degradado_sin_nombre_4);}</style><linearGradient id="Degradado_sin_nombre_4" y1="18.65" x2="79.38" y2="18.65" gradientUnits="userSpaceOnUse"><stop offset="0" stop-color="#fff" stop-opacity="0"/><stop offset="0" stop-color="#f9fdfe" stop-opacity="0.02"/><stop offset="0.03" stop-color="#bfe6f1" stop-opacity="0.25"/><stop offset="0.05" stop-color="#8cd3e7" stop-opacity="0.45"/><stop offset="0.08" stop-color="#60c2dd" stop-opacity="0.62"/><stop offset="0.11" stop-color="#3db5d6" stop-opacity="0.76"/><stop offset="0.14" stop-color="#22aad0" stop-opacity="0.87"/><stop offset="0.17" stop-color="#0fa3cc" stop-opacity="0.94"/><stop offset="0.21" stop-color="#039eca" stop-opacity="0.99"/><stop offset="0.26" stop-color="#009dc9"/><stop offset="0.62" stop-color="#853188"/><stop offset="1" stop-color="#f4a47e"/></linearGradient></defs><title>logo_home</title><path class="cls-1" d="M75.73,29.64c-4.29-.41-5.66-2.48-7.11-4.68-1.91-2.89-3.88-5.89-12.38-3.48v0c-2.82.41-4.36,3.94-5.86,7.37-.29.66-.58,1.32-.88,2A33.33,33.33,0,0,1,48,27.55c-1.26-3-2.52-6.85-3.75-10.58s-2.27-6.79-3.26-9.31C39.32,3.43,38,1,36.46.58c-.33-.11-4.8-1.5-8.12.47-2.12,1.15-3.81,5.34-6.16,11.14-1.29,3.18-2.73,6.74-4.43,10.19C16.22,20.09,14.75,18,13,18c-1.39,0-2.82,1.49-4.81,3.56-2.21,2.3-5,5.16-8.14,6.29l.52,1.46C4,28.09,6.93,25.08,9.26,22.66c1.46-1.52,3-3.09,3.7-3.09,1.07,0,2.58,2.26,3.79,4.08.54.8,1.06,1.59,1.59,2.28a9.64,9.64,0,0,0,1,1.18,3.49,3.49,0,0,0,2.17,1.17l.39,0c3.45,0,5.93-7.07,8.56-14.55C31.11,12,31.82,10,32.55,8.11c1.1,2.82,2.24,6.33,3.43,10,3.66,11.3,6.11,18.21,9.12,18.67v.08A20.3,20.3,0,0,0,49,37.3c6.5,0,8.21-4.25,9.74-8.07a19.61,19.61,0,0,1,1.93-3.95c.44.47.88,1,1.33,1.53,2,2.31,4.16,4.92,7.53,5.26a7.42,7.42,0,0,0,.83,0,17.73,17.73,0,0,0,5.51-1L79.38,30ZM29,13.26c-2,5.7-4.75,13.51-7.1,13.51a2.38,2.38,0,0,1-1.58-.86,12,12,0,0,1-.86-1c-.24-.33-.48-.69-.71-1,1.89-3.73,3.46-7.62,4.85-11.06,2.06-5.1,3.84-9.5,5.47-10.37l0,0a8,8,0,0,1,5-.72l-.08.09a10.53,10.53,0,0,0-1.62,2.63A90.49,90.49,0,0,0,29,13.26Zm8.44,4.4c-1.41-4.35-2.74-8.47-4-11.53.15-.39.31-.75.46-1.08a16.84,16.84,0,0,1,.82-1.51A4,4,0,0,1,36,2.14c1,.58,2.23,3,3.43,6,1,2.54,2,5.59,3.05,8.78,1.28,3.84,2.58,7.76,3.88,10.93l0,.08.31.73.14.32.15.35.26.56.12.25.25.52.16.32.17.32.25.45.1.17.31.51,0,0A6.66,6.66,0,0,1,46.55,35a1.9,1.9,0,0,1-1.2.26C43.07,35,39.83,25,37.46,17.65Zm19.87,11c-1.53,3.8-3,7.41-9.14,7.07l.18-.18,0,0,.14-.14a11.54,11.54,0,0,0,1.76-2.54l.23-.42,0,0c.46-.92.89-1.9,1.32-2.88,1.39-3.18,2.83-6.48,5-6.48a3.79,3.79,0,0,1,2.75,1.18A20,20,0,0,0,57.33,28.66Zm12.4,1.88C67,30.27,65.06,28,63.21,25.82c-.5-.59-1-1.18-1.52-1.73l0,0-.41-.37a10.53,10.53,0,0,0-1.52-1.28l-.09-.06-.08-.06c4.89-.76,6.16,1.17,7.71,3.51,1.12,1.7,2.35,3.56,5,4.61A11.17,11.17,0,0,1,69.73,30.54Z"/></svg>